<svg width="1600" height="620" viewBox="0 0 1600 620" fill="none" xmlns="http://www.w3.org/2000/svg">
  <defs>
    <linearGradient id="a" x1="0" y1="0" x2="1" y2="1">
      <stop offset="0" stop-color="#0B2D66"/>
      <stop offset="1" stop-color="#05204B"/>
    </linearGradient>
  </defs>
  <rect width="1600" height="620" fill="url(#a)"/>
  <path d="M-50 520C120 380 280 420 430 560C610 720 860 700 1020 550C1200 380 1360 380 1650 540V680H-50V520Z" fill="#1B4D97" opacity="0.25"/>
  <path d="M-100 460C90 300 280 300 480 430C650 540 860 540 1030 430C1230 300 1420 300 1710 470V680H-100V460Z" fill="#2D63B8" opacity="0.18"/>
  <circle cx="240" cy="110" r="130" fill="#5EA2FF" opacity="0.12"/>
  <circle cx="1330" cy="560" r="180" fill="#3A7DE0" opacity="0.14"/>
</svg>
